# xmcd CD database file
#
# Track frame offsets:
#	150
#	14135
#	27242
#	39622
#	51175
#	62770
#	76830
#	90657
#	103490
#	114225
#	128395
#	138975
#	152562
#	164655
#
# Disc length: 2412 seconds
#
# Revision: 0
# Processed by: cddbd v1.4PL0 Copyright (c) Steve Scherf et al.
# Submitted via: Feurio! 1.66 - http://www.feurio.com
#
DISCID=b5096a0e
DTITLE=Trucks aus dem Zillertal - Highway Träume
DYEAR=1900
DGENRE=Country
TTITLE0=Highway Träume
TTITLE1=Er ging nach Nashville
TTITLE2=Lohn der Angst
TTITLE3=Cotton Fields
TTITLE4=Er spielt Banjo in der Countryband
TTITLE5=Auf der Strasse der Sonne
TTITLE6=Ein paar Stunden
TTITLE7=Strassenasphalt
TTITLE8=Hey Frau
TTITLE9=Seit Jonny ging
TTITLE10=Western Train
TTITLE11=Country Roads
TTITLE12=Deputy Bill
TTITLE13=Each Raindrop
EXTD=
EXTT0=
EXTT1=
EXTT2=
EXTT3=
EXTT4=
EXTT5=
EXTT6=
EXTT7=
EXTT8=
EXTT9=
EXTT10=
EXTT11=
EXTT12=
EXTT13=
PLAYORDER=
